PathFileType	4	(X/Y/Z)	C:\Users\Basilio\Documents\Thesis Gigler\squatting_fais\c3dfiles\073\SLS_back_pre3\markers_experimental.trc
DataRate	CameraRate	NumFrames	NumMarkers	Units	OrigDataRate	OrigDataStartFrame	OrigNumFrames
200.000000	200.000000	4	61	mm	200.000000	164	1317
Frame#	Time	FHD			LBHD			RBHD			C7			T10			CLAV			LSHO			LUUPA			LMUPA			LDUPA			LLEP			LMEP			LRAD			LUL			LRFIN			RSHO			RUPA1			RMUPA			RDUPA			RLEP			RMEP			RUL			RUFIN			LASI			RASI			USACR			LSACR			RSACR			LTHI1			LTHI2			LTHI3			LTHI4			LLFC			LMFC			LTIB1			LTIB2			LTIB3			LTIB4			LLMAL			LMMAL			LHEE			LMT1			LMT2			LMT5			RTHI			RTHI2			RTHI3			RTHI4			RLFC			RMFC			RTIB1			RTIB2			RTIB3			RTIB4			RLMAL			RMMAL			RHEE			RMT1			RMT2			RMT5			RRAD			
		X1	Y1	Z1	X2	Y2	Z2	X3	Y3	Z3	X4	Y4	Z4	X5	Y5	Z5	X6	Y6	Z6	X7	Y7	Z7	X8	Y8	Z8	X9	Y9	Z9	X10	Y10	Z10	X11	Y11	Z11	X12	Y12	Z12	X13	Y13	Z13	X14	Y14	Z14	X15	Y15	Z15	X16	Y16	Z16	X17	Y17	Z17	X18	Y18	Z18	X19	Y19	Z19	X20	Y20	Z20	X21	Y21	Z21	X22	Y22	Z22	X23	Y23	Z23	X24	Y24	Z24	X25	Y25	Z25	X26	Y26	Z26	X27	Y27	Z27	X28	Y28	Z28	X29	Y29	Z29	X30	Y30	Z30	X31	Y31	Z31	X32	Y32	Z32	X33	Y33	Z33	X34	Y34	Z34	X35	Y35	Z35	X36	Y36	Z36	X37	Y37	Z37	X38	Y38	Z38	X39	Y39	Z39	X40	Y40	Z40	X41	Y41	Z41	X42	Y42	Z42	X43	Y43	Z43	X44	Y44	Z44	X45	Y45	Z45	X46	Y46	Z46	X47	Y47	Z47	X48	Y48	Z48	X49	Y49	Z49	X50	Y50	Z50	X51	Y51	Z51	X52	Y52	Z52	X53	Y53	Z53	X54	Y54	Z54	X55	Y55	Z55	X56	Y56	Z56	X57	Y57	Z57	X58	Y58	Z58	X59	Y59	Z59	X60	Y60	Z60	X61	Y61	Z61	

165	0.8200000000000001	-150.6973876953125	1676.168823242188	-758.1024780273439	-285.3894653320313	1650.884643554688	-784.2461547851565	-310.6195373535157	1632.644653320313	-651.2709350585939	-347.2578430175782	1532.676879882813	-713.5159912109376	-409.2309875488282	1199.284790039063	-728.6671752929689	-226.8044433593751	1444.295532226563	-715.3632202148439	-257.7952270507813	1495.182739257813	-857.3836059570315	-175.3935241699219	1419.58251953125	-950.330749511719	-134.5425415039063	1439.759643554688	-928.572448730469	-112.5993804931641	1392.87939453125	-960.9156494140627	-8.331716537475588	1368.17626953125	-963.9161376953127	-13.21060657501221	1310.553833007813	-922.1307373046877	247.6315307617188	1389.474975585938	-844.4255371093752	253.766586303711	1387.007446289063	-918.6623535156252	330.5588989257813	1396.706665039063	-834.7313232421877	-239.0081939697266	1480.921997070313	-568.7376098632814	-148.0513458251953	1371.503540039063	-476.1105346679689	-108.446891784668	1393.601806640625	-491.8681945800782	-85.55828857421876	1341.768676757813	-472.2137756347657	5.753794670104981	1322.95068359375	-474.3909301757814	0.3989234268665315	1272.197143554688	-540.2460937500001	265.0720520019532	1367.547241210938	-522.4127197265626	343.9854125976563	1390.92529296875	-600.8973388671876	-256.6323852539063	1026.475830078125	-860.0435180664065	-251.1253967285157	1022.698669433594	-610.7309570312501	-433.7180175781251	1098.608642578125	-730.0054321289064	-447.2281799316407	1070.58984375	-758.4616088867189	-451.3007202148439	1068.8173828125	-702.0586547851564	-265.4311828613282	701.1109008789064	-904.083190917969	-224.5357513427735	628.7988281250001	-884.533386230469	-185.0328216552735	636.1958618164064	-856.0179443359377	-250.663803100586	574.8156127929689	-877.9288330078127	-260.0452880859376	528.9406127929689	-877.749694824219	-274.5882263183594	526.0211791992189	-743.1119995117189	-407.6038513183595	408.2573852539064	-836.3162841796877	-463.191864013672	448.780731201172	-889.803405761719	-456.7532043457032	408.8159484863282	-869.9622802734377	-531.5713500976564	383.0103759765626	-838.873474121094	-662.3715820312501	401.644744873047	-870.1416625976565	-637.3392944335939	398.4203186035157	-784.2949829101565	-707.2994384765626	451.9013671875001	-828.3095703125002	-660.3245239257814	234.4864807128907	-786.6898193359377	-660.3055419921876	231.3502655029297	-825.7725830078127	-691.7670288085939	258.7971801757813	-878.1987304687502	-345.4429321289063	794.0527343750002	-554.9848022460939	-309.9764099121094	738.5639648437501	-559.6916503906251	-276.6168212890626	740.0242309570314	-561.2365112304689	-335.6340026855469	663.5004882812501	-585.3671875000001	-317.3196411132813	513.7117309570314	-613.4050292968751	-316.9309997558594	513.0948486328126	-743.4650268554689	-284.7548828125001	357.5671386718751	-716.6350097656251	-306.7194824218751	270.8944396972657	-656.0122070312501	-284.1124267578126	272.3472290039063	-698.9985351562501	-306.1409301757813	231.3152618408204	-734.5028686523439	-360.0057678222657	100.8367156982422	-690.6597290039064	-356.0217895507813	127.1828002929688	-775.1364746093752	-431.0105285644532	81.32192230224611	-745.0087890625001	-206.8387908935547	54.32130050659181	-761.7043457031251	-205.8165740966797	52.64832687377931	-719.8936157226564	-248.4955596923829	35.50688934326173	-671.2152709960939	nan	nan	nan	
166	0.8250000000000001	-150.6190032958985	1676.129638671875	-758.3063964843751	-285.2934570312501	1650.80615234375	-784.459167480469	-310.5545654296876	1632.731079101563	-651.6494140625001	-347.1548156738282	1532.561889648438	-713.6998901367189	-409.2502746582032	1199.24951171875	-728.6727294921876	-226.7284393310547	1444.333374023438	-715.5447998046876	-257.7763061523438	1495.111328125	-857.5686035156252	-175.2800750732422	1419.525268554688	-950.4981689453127	-134.4679870605469	1439.675537109375	-928.682800292969	-112.5131378173828	1392.797607421875	-961.0488281250002	-8.322530746459963	1368.05810546875	-964.0635986328127	-13.19705772399903	1310.441040039063	-922.190612792969	247.7397613525391	1389.500244140625	-844.4718017578127	253.8361511230469	1386.893798828125	-918.7694091796877	330.6549072265626	1396.568725585938	-834.8906860351565	-238.9498291015626	1480.933959960938	-568.9718627929689	-148.0723571777344	1371.420043945313	-476.1627807617189	-108.4436416625977	1393.64013671875	-492.0083312988282	-85.5410842895508	1341.802856445313	-472.3514099121095	5.80133867263794	1322.970458984375	-474.4744873046876	0.4426470398902894	1272.244262695313	-540.3093261718751	265.0993652343751	1367.58984375	-522.5272216796876	344.0088195800782	1390.953857421875	-600.9768066406251	-256.6003723144532	1026.33837890625	-859.903259277344	-251.1665649414063	1022.706604003906	-610.6179809570314	-433.8042907714845	1098.567626953125	-729.9780273437501	-447.3037414550782	1070.546630859375	-758.3815307617189	-451.3918457031251	1068.773803710938	-702.0119018554689	-265.4566040039063	701.0728149414064	-903.8010864257815	-224.5837402343751	628.7162475585939	-884.2073974609377	-185.1009979248047	636.1352539062501	-855.7207641601565	-250.6891784667969	574.7691040039064	-877.6058349609377	-260.0366821289063	528.9032592773439	-877.396667480469	-274.6560058593751	526.0329589843751	-742.7321166992189	-407.6156005859376	408.1777343750001	-836.0675048828127	-463.1834716796876	448.6341857910157	-889.5532836914065	-456.8152160644532	408.5989990234376	-869.7479248046877	-531.5401000976564	382.8710937500001	-838.5701904296877	-662.3345336914064	401.4366149902345	-869.8055419921877	-637.3173828125001	398.2602539062501	-783.9636840820315	-707.2904052734376	451.7476196289064	-828.0640869140627	-660.2331542968751	234.321517944336	-786.4226684570315	-660.1796264648439	231.1761627197266	-825.461608886719	-691.7499389648439	258.6359863281251	-877.9272460937502	-345.5390930175782	794.021911621094	-554.9574584960939	-310.0675048828126	738.5148925781251	-559.6770019531251	-276.6963500976563	739.9805908203126	-561.0604248046876	-335.7043457031251	663.4863891601564	-585.3123168945314	-317.2743530273438	513.7112426757814	-613.3283081054689	-316.4458007812501	513.0186767578126	-743.3368530273439	-284.6864929199219	357.5907287597657	-716.5782470703126	-306.7028198242188	270.9076843261719	-655.9033203125001	-284.0323181152344	272.3069763183594	-698.9378662109376	-306.0769348144532	231.3262786865235	-734.4462890625001	-360.0053710937501	100.8460006713867	-690.6692504882814	-356.0345458984376	127.2014465332032	-775.0964355468752	-431.0172119140626	81.32674407958986	-745.0072021484376	-206.8186187744141	54.28950500488283	-761.7166748046876	-205.8148803710938	52.62570571899415	-719.8701782226564	-248.4893798828126	35.4962272644043	-671.2619018554689	nan	nan	nan	
167	0.8300000000000001	-150.6093292236328	1676.102416992188	-758.5455932617189	-285.2573242187501	1650.795532226563	-784.7017211914065	-310.5008850097657	1632.731567382813	-651.8630981445314	-347.0592346191407	1532.553955078125	-713.8330078125001	-409.2252807617189	1199.263793945313	-728.6898193359376	-226.6709899902344	1444.265625	-715.6978149414064	-257.6945190429688	1495.06640625	-857.7551269531252	-175.2119140625	1419.448486328125	-950.6469726562502	-134.42333984375	1439.574462890625	-928.833435058594	-112.4126892089844	1392.691772460938	-961.261169433594	-8.200757026672365	1367.97216796875	-964.1672363281252	-13.1601619720459	1310.273559570313	-922.226501464844	247.8209533691407	1389.350830078125	-844.6201171875002	253.888168334961	1386.750122070313	-918.9702758789065	330.7083740234376	1396.436401367188	-835.0396118164065	-238.9185028076172	1481.001342773438	-569.1699218750001	-148.0493316650391	1371.45263671875	-476.3226013183595	-108.5559921264649	1393.773681640625	-491.4289550781251	-85.54918670654298	1341.82080078125	-472.4692687988282	5.779746055603028	1323.00830078125	-474.5111694335939	0.4316339790821077	1272.267456054688	-540.3954467773439	265.1441040039063	1367.610717773438	-522.5906372070314	344.0950317382813	1391.035034179688	-600.9774780273439	-256.6389465332032	1026.226928710938	-859.748474121094	-251.2138061523438	1022.747680664063	-610.4473266601564	-433.8281555175782	1098.562255859375	-729.8989257812501	-447.2547302246095	1070.498413085938	-758.3366088867189	-451.407928466797	1068.716796875	-701.9520874023439	-265.4524230957032	700.9789428710939	-903.5429687500002	-224.6391296386719	628.6322021484376	-883.9589843750002	-185.0986022949219	636.0496826171876	-855.421569824219	-250.6809387207032	574.7094726562501	-877.2688598632815	-260.0614013671876	528.8613891601564	-877.053161621094	-274.6941223144532	526.0635986328126	-742.3434448242189	-407.577117919922	408.0694580078126	-835.7630615234377	-463.3087768554689	448.4928283691407	-889.2736816406252	-456.6808471679689	408.411834716797	-869.4677734375002	-531.4799194335939	382.7417907714844	-838.191589355469	-662.3740844726564	401.3153076171876	-869.5582275390627	-637.3124389648439	398.1153564453126	-783.6330566406252	-707.2581176757814	451.568084716797	-827.8177490234377	-660.1633911132814	234.166976928711	-786.0850219726565	-660.0672607421876	230.9160614013672	-825.0991821289065	-691.6641845703126	258.4674987792969	-877.622497558594	-345.6356506347657	793.979431152344	-554.8865356445314	-310.1653747558594	738.4747924804689	-559.6004028320314	-276.7875366210938	739.9447021484376	-560.8833007812501	-335.7640991210938	663.4652709960939	-585.2974853515626	-317.2809753417969	513.6413574218751	-613.2547607421876	-316.1309814453126	512.9227905273439	-743.2379150390626	-284.7200927734376	357.5715026855469	-716.6022949218751	-306.6468505859376	270.8923645019532	-655.9844360351564	-284.0004577636719	272.3097229003907	-698.8898315429689	-306.0517883300782	231.332504272461	-734.4383544921876	-359.9883117675782	100.8608551025391	-690.6954956054689	-356.0338745117188	127.193832397461	-775.096130371094	-431.0057983398439	81.37118530273439	-745.0022583007814	-206.8140869140626	54.33187866210939	-761.6848754882814	-205.8077545166016	52.61574554443361	-719.8826904296876	-248.497543334961	35.48564147949219	-671.1909179687501	nan	nan	nan	
168	0.835	-150.6359558105469	1676.115356445313	-758.7169799804689	-285.2442321777344	1650.724243164063	-784.9068603515627	-310.4176635742188	1632.719970703125	-651.9060058593751	-347.0643005371094	1532.526977539063	-714.0122680664064	-409.2163391113282	1199.263916015625	-728.6942138671876	-226.5220642089844	1444.271484375	-715.8429565429689	-257.5954284667969	1494.97265625	-857.9219970703127	-175.138916015625	1419.365478515625	-950.822692871094	-134.3321380615235	1439.46923828125	-928.9407348632815	-112.3434066772461	1392.615966796875	-961.428894042969	-8.103189468383791	1367.825439453125	-964.2846679687502	-13.04501628875733	1310.122436523438	-922.2844848632815	247.8623352050782	1389.246215820313	-844.7688598632815	253.8786315917969	1386.572509765625	-919.1421508789065	330.8101806640626	1396.267822265625	-835.2634887695315	-238.8930664062501	1481.058959960938	-569.3001098632814	-148.0270385742188	1371.619140625	-476.5332641601564	-108.3812103271485	1393.692626953125	-492.2334594726564	-85.49758148193361	1341.890258789063	-472.5683593750001	5.811927795410157	1323.259155273438	-474.6563720703126	0.4488392770290376	1272.29443359375	-540.4519042968751	265.1359558105469	1367.627807617188	-522.6560668945314	344.0658874511719	1391.019165039063	-601.1046752929689	-256.6459960937501	1026.162963867188	-859.600280761719	-251.2965087890626	1022.771057128906	-610.3056640625001	-433.8676147460939	1098.536254882813	-729.8980712890626	-447.2425537109376	1070.42626953125	-758.2634887695314	-451.3829040527345	1068.68701171875	-701.9001464843751	-265.5018920898438	700.8830566406251	-903.3030395507815	-224.6168823242188	628.5620117187501	-883.632995605469	-185.0874938964844	635.9837036132814	-855.1708984375002	-250.7123107910157	574.6503295898439	-876.9998168945315	-260.0287780761719	528.7880859375001	-876.6761474609377	-274.6575927734376	526.0885009765626	-741.9456787109376	-407.4729614257814	407.9935913085939	-835.3657226562502	-463.1907348632814	448.4057617187501	-888.9924926757815	-456.8703918457032	408.3086547851564	-869.1456298828127	-531.4321289062501	382.6020202636719	-837.807556152344	-662.3071289062501	401.2037963867189	-869.3254394531252	-637.2689208984376	397.9451599121095	-783.374694824219	-707.2381591796876	451.397430419922	-827.6065673828127	-660.1917724609376	234.0218505859376	-785.782409667969	-659.9751586914064	230.6262359619141	-824.7562255859377	-691.5898437500001	258.3002014160157	-877.358581542969	-345.7404479980469	793.949157714844	-554.8674316406251	-310.2359619140626	738.4262084960939	-559.5293579101564	-276.8997192382813	739.9134521484376	-560.7591552734376	-335.8508911132813	663.4246215820314	-585.2785644531251	-317.3095092773438	513.6455688476564	-613.2467041015626	-315.8957214355469	512.8611450195314	-743.0634155273439	-284.6579895019532	357.5369262695313	-716.5933837890626	-306.6256713867188	270.9064636230469	-655.9480590820314	-283.9402160644532	272.3084716796876	-698.9169921875001	-306.0219421386719	231.3278198242188	-734.4565429687501	-359.9731445312501	100.8951797485352	-690.7100830078126	-356.0290222167969	127.1986770629883	-775.107360839844	-431.0234985351564	81.39633178710939	-745.0255737304689	-206.8303680419922	54.30694580078126	-761.7325439453126	-205.8009033203126	52.61165237426759	-719.8867797851564	-248.4897003173829	35.50871276855469	-671.2679443359376	nan	nan	nan	
